<svg preserveAspectRatio="none" width="100%" height="100%" overflow="visible" style="display: block;" viewBox="0 0 20 20" fill="none" xmlns="http://www.w3.org/2000/svg">
<path id="Icon" d="M7 16V3.00001L19 1.00001V14M7 16C7 17.6569 5.65685 19 4 19C2.34315 19 1 17.6569 1 16C1 14.3432 2.34315 13 4 13C5.65685 13 7 14.3432 7 16ZM19 14C19 15.6569 17.6569 17 16 17C14.3431 17 13 15.6569 13 14C13 12.3432 14.3431 11 16 11C17.6569 11 19 12.3432 19 14Z" stroke="var(--stroke-0, #BFBFBF)" stroke-width="2" stroke-linecap="round" stroke-linejoin="round"/>
</svg>
