<svg preserveAspectRatio="none" width="100%" height="100%" overflow="visible" style="display: block;" viewBox="0 0 15.25 16.1667" fill="none" xmlns="http://www.w3.org/2000/svg">
<path id="Shape" d="M11.9167 4.41667C11.9167 4.83088 12.2525 5.16667 12.6667 5.16667C13.0809 5.16667 13.4167 4.83088 13.4167 4.41667H12.6667H11.9167ZM13.75 8.08333C13.75 8.49755 14.0858 8.83333 14.5 8.83333C14.9142 8.83333 15.25 8.49755 15.25 8.08333H14.5H13.75ZM15.25 11.75C15.25 11.3358 14.9142 11 14.5 11C14.0858 11 13.75 11.3358 13.75 11.75H14.5H15.25ZM1.5 2.58333C1.5 2.16912 1.16421 1.83333 0.75 1.83333C0.335786 1.83333 0 2.16912 0 2.58333H0.75H1.5ZM12.6667 4.41667H13.4167V1.66667H12.6667H11.9167V4.41667H12.6667ZM12.6667 1.66667H13.4167C13.4167 0.746192 12.6705 0 11.75 0V0.75V1.5C11.842 1.5 11.9167 1.57462 11.9167 1.66667H12.6667ZM11.75 0.75V0H2.58333V0.75V1.5H11.75V0.75ZM2.58333 0.75V0C1.1566 0 5.96046e-08 1.1566 5.96046e-08 2.58333H0.75H1.5C1.5 1.98502 1.98502 1.5 2.58333 1.5V0.75ZM0.75 2.58333H5.96046e-08C5.96046e-08 4.01007 1.1566 5.16667 2.58333 5.16667V4.41667V3.66667C1.98502 3.66667 1.5 3.18164 1.5 2.58333H0.75ZM2.58333 4.41667V5.16667H13.5833V4.41667V3.66667H2.58333V4.41667ZM13.5833 4.41667V5.16667C13.6754 5.16667 13.75 5.24129 13.75 5.33333H14.5H15.25C15.25 4.41286 14.5038 3.66667 13.5833 3.66667V4.41667ZM14.5 5.33333H13.75V8.08333H14.5H15.25V5.33333H14.5ZM14.5 11.75H13.75V14.5H14.5H15.25V11.75H14.5ZM14.5 14.5H13.75C13.75 14.592 13.6754 14.6667 13.5833 14.6667V15.4167V16.1667C14.5038 16.1667 15.25 15.4205 15.25 14.5H14.5ZM13.5833 15.4167V14.6667H2.58333V15.4167V16.1667H13.5833V15.4167ZM2.58333 15.4167V14.6667C1.98502 14.6667 1.5 14.1816 1.5 13.5833H0.75H0C0 15.0101 1.1566 16.1667 2.58333 16.1667V15.4167ZM0.75 13.5833H1.5V2.58333H0.75H0V13.5833H0.75Z" fill="var(--stroke-0, white)"/>
</svg>
