<svg width="36" height="45" viewBox="0 0 36 45" fill="none" xmlns="http://www.w3.org/2000/svg">
<g clip-path="url(#clip0_2594_26914)">
<path d="M4.61672 14.0155L4.61673 14.0155L4.6128 14.0147C4.32278 13.9567 4.11475 13.6979 4.11475 13.41C4.11475 13.1149 4.31639 12.8602 4.62175 12.7884L19.1178 9.79029C19.1183 9.79019 19.1187 9.7901 19.1192 9.79001C19.2035 9.77333 19.286 9.77333 19.3703 9.79001C19.3708 9.7901 19.3712 9.79019 19.3717 9.79029L33.8677 12.7884C34.1634 12.858 34.3597 13.1052 34.3597 13.41C34.3597 13.7016 34.1478 13.9589 33.8739 14.0153L33.8733 14.0154L28.0086 15.2303L28.0083 15.2304L25.7586 15.6953L25.7586 15.6953L19.3717 17.0147C19.3712 17.0148 19.3707 17.0149 19.3701 17.015C19.2873 17.0316 19.2616 17.035 19.2447 17.035C19.2279 17.035 19.2021 17.0316 19.1193 17.015C19.1188 17.0149 19.1183 17.0148 19.1178 17.0147L12.7309 15.6953L12.7309 15.6953L10.4809 15.2303L10.4809 15.2303L8.66594 14.8553L8.66592 14.8553L6.41672 14.3905L6.41594 14.3903L4.61672 14.0155Z" fill="#BFBFBF" stroke="#8C8C8C"/>
<path d="M20.0021 20.2032L20.0117 20.2016L20.0213 20.1996L25.9611 18.9696L25.9613 18.9696L27.6099 18.6289V22.485C27.6099 23.7913 26.7674 24.919 25.5206 25.3062C23.4664 25.9075 21.3549 26.215 19.2449 26.215C17.1343 26.215 15.0228 25.9073 12.9839 25.3062C11.7217 24.9187 10.8799 23.7906 10.8799 22.485V18.6289L12.5285 18.9696L12.5287 18.9696L18.4685 20.1996L18.4781 20.2016L18.4877 20.2032C18.5071 20.2064 18.528 20.21 18.5504 20.2139C18.7169 20.2427 18.9619 20.285 19.2449 20.285C19.5278 20.285 19.7728 20.2427 19.9394 20.2139C19.9617 20.21 19.9827 20.2064 20.0021 20.2032Z" fill="#BFBFBF" stroke="#8C8C8C"/>
<path d="M6.81504 21.426V17.7907L8.06354 18.0487V21.435V21.526L8.09559 21.6111L9.07809 24.2211L9.07812 24.2212C9.1508 24.4142 9.12391 24.6288 9.00759 24.7967C8.89101 24.9649 8.69808 25.066 8.49304 25.066H6.38254C6.17633 25.066 5.98441 24.9655 5.86864 24.7976L5.86798 24.7967C5.75251 24.6301 5.72559 24.4138 5.79771 24.2205C5.79776 24.2204 5.79782 24.2202 5.79787 24.2201L6.783 21.6021L6.81504 21.5169V21.426Z" fill="#BFBFBF" stroke="#8C8C8C"/>
</g>
<defs>
<clipPath id="clip0_2594_26914">
<rect width="36" height="45" fill="white"/>
</clipPath>
</defs>
</svg>
