<svg width="36" height="36" viewBox="0 0 36 36" fill="none" xmlns="http://www.w3.org/2000/svg">
<path fill-rule="evenodd" clip-rule="evenodd" d="M11.9877 31.5692V32.9578C11.9877 34.6365 13.3541 36.0013 15.0313 36.0013H20.9689C22.6476 36.0013 24.0124 34.635 24.0124 32.9578V31.5692H11.9864H11.9877ZM5.2729 6.7695C4.8599 6.3565 4.8599 5.68589 5.2729 5.2729C5.68589 4.8599 6.3565 4.8599 6.7695 5.2729L9.23719 7.74059C9.6517 8.15359 9.6517 8.8242 9.23719 9.23719C8.8242 9.65019 8.15359 9.65019 7.74059 9.23719L5.2729 6.7695ZM1.05844 19.0593C0.473704 19.0593 0 18.5856 0 18.0008C0 17.4161 0.473704 16.9424 1.05844 16.9424H4.54904C5.13378 16.9424 5.60748 17.4161 5.60748 18.0008C5.60748 18.5856 5.13378 19.0593 4.54904 19.0593H1.05844ZM6.76942 30.7287C6.35643 31.1417 5.68581 31.1417 5.27282 30.7287C4.85983 30.3157 4.85983 29.6451 5.27282 29.2321L7.74052 26.7644C8.15351 26.3514 8.82412 26.3514 9.23712 26.7644C9.65163 27.1774 9.65163 27.848 9.23712 28.261L6.76942 30.7287ZM30.7286 29.2321C31.1431 29.6451 31.1431 30.3157 30.7286 30.7287C30.3156 31.1417 29.645 31.1417 29.232 30.7287L26.7643 28.261C26.3513 27.848 26.3513 27.1774 26.7643 26.7644C27.1773 26.3514 27.8479 26.3514 28.2609 26.7644L30.7286 29.2321ZM34.9416 16.9423C35.5263 16.9423 36 17.416 36 18.0008C36 18.5855 35.5263 19.0592 34.9416 19.0592H31.451C30.8662 19.0592 30.3925 18.5855 30.3925 18.0008C30.3925 17.416 30.8662 16.9423 31.451 16.9423H34.9416ZM29.2306 5.2729C29.6436 4.8599 30.3142 4.8599 30.7272 5.2729C31.1417 5.68589 31.1417 6.3565 30.7272 6.7695L28.2595 9.23719C27.8465 9.65019 27.1759 9.65019 26.7629 9.23719C26.3499 8.8242 26.3499 8.15359 26.7629 7.74059L29.2306 5.2729ZM16.9423 1.05844C16.9423 0.473704 17.4175 0 18.0008 0C18.5855 0 19.0592 0.473704 19.0592 1.05844V4.54756C19.0592 5.1323 18.5855 5.60748 18.0008 5.60748C17.416 5.60748 16.9423 5.1323 16.9423 4.54756V1.05844ZM24.0596 29.7145C24.2358 27.9884 24.9123 26.5067 26.0877 25.1878C29.8819 20.9214 29.716 14.4139 25.6525 10.3491C21.4278 6.12443 14.5765 6.12443 10.3503 10.3491C6.28518 14.4142 6.12109 20.9214 9.91512 25.1878C11.089 26.5083 11.767 27.99 11.9417 29.7145H24.0596ZM12.4895 16.9306C12.4895 17.4428 12.075 17.8572 11.5628 17.8572C11.0506 17.8572 10.6361 17.4427 10.6361 16.9306C10.6361 13.397 13.502 10.531 17.0357 10.531C17.5479 10.531 17.9624 10.9455 17.9624 11.4577C17.9624 11.9699 17.5479 12.3844 17.0357 12.3844C14.5251 12.3844 12.4895 14.42 12.4895 16.9306Z" fill="#6155F5"/>
</svg>
