<svg width="36" height="36" viewBox="0 0 36 36" fill="none" xmlns="http://www.w3.org/2000/svg">
<path d="M16.7143 16.7143V0H3.85714C2.83416 0 1.85309 0.406377 1.12973 1.12973C0.406377 1.85309 0 2.83416 0 3.85714V16.7143H16.7143Z" fill="#6155F5"/>
<path d="M19.2857 16.7143H36V3.85714C36 2.83416 35.5936 1.85309 34.8703 1.12973C34.1469 0.406377 33.1658 0 32.1428 0H19.2857V16.7143Z" fill="#6155F5"/>
<path d="M19.2857 19.2856V35.9999H32.1428C33.1658 35.9999 34.1469 35.5936 34.8703 34.8702C35.5936 34.1468 36 33.1658 36 32.1428V19.2856H19.2857Z" fill="#6155F5"/>
<path d="M16.7143 19.2856H0V32.1428C0 33.1658 0.406377 34.1468 1.12973 34.8702C1.85309 35.5936 2.83416 35.9999 3.85714 35.9999H16.7143V19.2856Z" fill="#6155F5"/>
</svg>
