<svg width="49" height="36" viewBox="0 0 49 36" fill="none" xmlns="http://www.w3.org/2000/svg">
<path d="M48.9759 34.8031C48.9759 35.1206 48.8498 35.425 48.6253 35.6494C48.4008 35.8739 48.0964 36 47.779 36H1.19687C0.879439 36 0.575011 35.8739 0.350555 35.6494C0.126098 35.425 0 35.1206 0 34.8031C0 34.4857 0.126098 34.1813 0.350555 33.9568C0.575011 33.7324 0.879439 33.6063 1.19687 33.6063H4.5481V25.3778C4.5481 25.0604 4.6742 24.7559 4.89866 24.5315C5.12311 24.307 5.42754 24.1809 5.74497 24.1809H13.4588C13.7762 24.1809 14.0806 24.307 14.3051 24.5315C14.5296 24.7559 14.6557 25.0604 14.6557 25.3778V33.6063H18.5455V15.3241C18.5455 15.0067 18.6716 14.7022 18.896 14.4778C19.1205 14.2533 19.4249 14.1272 19.7423 14.1272H27.4801C27.7975 14.1272 28.102 14.2533 28.3264 14.4778C28.5509 14.7022 28.677 15.0067 28.677 15.3241V33.6063H32.5668V4.66598C32.5668 4.34855 32.6929 4.04412 32.9173 3.81967C33.1418 3.59521 33.4462 3.46911 33.7637 3.46911H41.4416C41.759 3.46911 42.0634 3.59521 42.2879 3.81967C42.5123 4.04412 42.6384 4.34855 42.6384 4.66598V33.6063H47.779C48.0964 33.6063 48.4008 33.7324 48.6253 33.9568C48.8498 34.1813 48.9759 34.4857 48.9759 34.8031ZM5.74497 19.8004C5.9029 19.8005 6.0593 19.7694 6.20515 19.7088C6.35099 19.6482 6.4834 19.5593 6.59475 19.4473L21.6633 4.36676L21.4599 6.7605C21.4467 6.91731 21.4647 7.07517 21.5126 7.22504C21.5606 7.37491 21.6377 7.51385 21.7394 7.63391C21.8411 7.75397 21.9655 7.8528 22.1054 7.92473C22.2454 7.99666 22.3982 8.04029 22.555 8.05312H22.6567C22.9582 8.05409 23.249 7.94121 23.4709 7.73707C23.6928 7.53293 23.8295 7.25255 23.8536 6.952L24.3264 1.2968C24.3409 1.12338 24.3174 0.948871 24.2576 0.785448C24.1978 0.622024 24.103 0.473612 23.98 0.350555C23.8569 0.227498 23.7085 0.132757 23.5451 0.0729349C23.3817 0.0131129 23.2072 -0.0103509 23.0337 0.00417901L17.3725 0.476941C17.0551 0.503923 16.7614 0.655898 16.556 0.899433C16.3507 1.14297 16.2504 1.45811 16.2774 1.77554C16.3044 2.09297 16.4564 2.38668 16.6999 2.59206C16.9434 2.79744 17.2586 2.89766 17.576 2.87068L19.9698 2.6732L4.90118 17.7418C4.72855 17.9081 4.60986 18.1225 4.56049 18.3571C4.51111 18.5917 4.53332 18.8357 4.62425 19.0575C4.71517 19.2793 4.87061 19.4687 5.07043 19.6012C5.27025 19.7337 5.50525 19.803 5.74497 19.8004Z" fill="#6155F5"/>
</svg>
