<svg width="36" height="36" viewBox="0 0 36 36" fill="none" xmlns="http://www.w3.org/2000/svg">
<path fill-rule="evenodd" clip-rule="evenodd" d="M11.4731 31.3809C10.879 33.9586 8.56857 35.8842 5.81072 35.8842C2.60357 35.8842 0 33.2808 0 30.0735C0 26.8662 2.60341 24.2628 5.81072 24.2628C9.01803 24.2628 11.6214 26.8662 11.6214 30.0735V30.117H27.0002V24.35H20.5922C20.0819 24.35 19.594 24.1471 19.2334 23.7864C18.8727 23.4258 18.6699 22.938 18.6699 22.4276V21.146H7.7763C7.42209 21.146 7.1355 20.8594 7.1355 20.5052V9.65532H2.05432C1.54393 9.65532 1.05609 9.45246 0.695448 9.09181C0.334803 8.73116 0.131935 8.24172 0.131935 7.73294V3.88821C0.131935 3.37783 0.334799 2.88838 0.695448 2.52934C1.05609 2.1687 1.54554 1.96583 2.05432 1.96583H15.5107C16.0211 1.96583 16.5089 2.16869 16.8696 2.52934C17.2302 2.88999 17.4331 3.37943 17.4331 3.88821V5.1698H24.3851C24.7039 2.2637 27.1704 0 30.1604 0C33.3675 0 35.9711 2.60341 35.9711 5.81072C35.9711 9.01803 33.3677 11.6214 30.1604 11.6214C27.1706 11.6214 24.7041 9.35774 24.3851 6.45164H17.4331V7.73323C17.4331 8.24361 17.2302 8.73145 16.8696 9.0921C16.5089 9.45274 16.0195 9.65561 15.5107 9.65561H8.41693V19.865H18.6696V18.5834C18.6696 18.073 18.8724 17.5852 19.2331 17.2245C19.5937 16.8639 20.0816 16.661 20.5919 16.661H34.0776C34.588 16.661 35.0758 16.8639 35.4365 17.2245C35.7971 17.5852 36 18.073 36 18.5834V22.4281C36 22.9385 35.7971 23.4263 35.4365 23.787C35.0758 24.1476 34.5864 24.3505 34.0776 24.3505H28.2817V30.7584C28.2817 31.1126 27.9952 31.3992 27.6409 31.3992H11.6213C11.5698 31.3992 11.5215 31.3928 11.4731 31.3815L11.4731 31.3809ZM5.25842 6.4498H5.89921C6.25342 6.4498 6.54001 6.16321 6.54001 5.809C6.54001 5.45479 6.25342 5.16821 5.89921 5.16821H5.25842C4.90421 5.16821 4.61762 5.45479 4.61762 5.809C4.61762 6.16321 4.90421 6.4498 5.25842 6.4498ZM11.6664 6.4498H12.3072C12.6614 6.4498 12.948 6.16321 12.948 5.809C12.948 5.45479 12.6614 5.16821 12.3072 5.16821H11.6664C11.3122 5.16821 11.0256 5.45479 11.0256 5.809C11.0256 6.16321 11.3122 6.4498 11.6664 6.4498ZM8.46243 6.4498H9.10323C9.45743 6.4498 9.74402 6.16321 9.74402 5.809C9.74402 5.45479 9.45744 5.16821 9.10323 5.16821H8.46243C8.10823 5.16821 7.82164 5.45479 7.82164 5.809C7.82164 6.16321 8.10822 6.4498 8.46243 6.4498ZM29.6263 6.4498H32.563C32.9172 6.4498 33.2038 6.16321 33.2038 5.809C33.2038 5.45479 32.9172 5.16821 32.563 5.16821H29.6263L30.6246 4.39218C30.9031 4.17483 30.9546 3.77232 30.7373 3.49378C30.5199 3.21525 30.1174 3.16373 29.8389 3.38108L27.3675 5.30346C27.2113 5.42422 27.1195 5.61098 27.1195 5.80903C27.1195 6.00706 27.2113 6.19382 27.3675 6.31459L29.8389 8.23697C30.1174 8.45433 30.5215 8.40442 30.7373 8.12427C30.9546 7.84574 30.9047 7.44164 30.6246 7.22426L29.6263 6.44824V6.4498ZM2.83719 30.3781L4.56796 32.1089C4.81751 32.36 5.22322 32.36 5.47439 32.1089L8.93432 28.6489C9.18388 28.3994 9.18388 27.9937 8.93432 27.7425C8.68477 27.493 8.27906 27.493 8.02789 27.7425L5.02035 30.75L3.74358 29.4733C3.49403 29.2237 3.08832 29.2237 2.83715 29.4733C2.58759 29.7228 2.58759 30.1285 2.83715 30.3797L2.83719 30.3781ZM30.219 21.1464H30.8598C31.214 21.1464 31.5006 20.8598 31.5006 20.5056C31.5006 20.1514 31.214 19.8648 30.8598 19.8648H30.219C29.8648 19.8648 29.5782 20.1514 29.5782 20.5056C29.5782 20.8598 29.8648 21.1464 30.219 21.1464ZM23.8111 21.1464H24.4519C24.8061 21.1464 25.0927 20.8598 25.0927 20.5056C25.0927 20.1514 24.8061 19.8648 24.4519 19.8648H23.8111C23.4569 19.8648 23.1703 20.1514 23.1703 20.5056C23.1703 20.8598 23.4569 21.1464 23.8111 21.1464ZM27.015 21.1464H27.6558C28.01 21.1464 28.2966 20.8598 28.2966 20.5056C28.2966 20.1514 28.01 19.8648 27.6558 19.8648H27.015C26.6608 19.8648 26.3742 20.1514 26.3742 20.5056C26.3742 20.8598 26.6608 21.1464 27.015 21.1464Z" fill="#6155F5"/>
</svg>
