<svg width="28" height="28" viewBox="0 0 28 28" fill="none" xmlns="http://www.w3.org/2000/svg">
<path d="M0 14C0 6.26801 6.26801 0 14 0C21.732 0 28 6.26801 28 14C28 21.732 21.732 28 14 28C6.26801 28 0 21.732 0 14Z" fill="#8C8C8C"/>
<path d="M11.072 9.625C11.4761 9.625 11.8491 9.65608 12.191 9.74934C12.533 9.8115 12.8127 9.93584 13.0614 10.0913C13.3101 10.2467 13.4966 10.4643 13.6209 10.744C13.7452 11.0238 13.8074 11.3657 13.8074 11.7387C13.8074 12.1739 13.7141 12.5469 13.4966 12.8267C13.3101 13.1064 12.9992 13.3551 12.6262 13.5416C13.1546 13.697 13.5587 13.9768 13.8074 14.3498C14.0561 14.7228 14.2115 15.189 14.2115 15.7175C14.2115 16.1526 14.1182 16.5257 13.9628 16.8365C13.8074 17.1473 13.5587 17.4271 13.279 17.6136C12.9992 17.8001 12.6573 17.9555 12.2843 18.0488C11.9113 18.142 11.5383 18.2042 11.1653 18.2042H7V9.625H11.072ZM10.8233 13.1064C11.1653 13.1064 11.445 13.0132 11.6626 12.8577C11.8802 12.7023 11.9734 12.4226 11.9734 12.0806C11.9734 11.8941 11.9424 11.7076 11.8802 11.5833C11.818 11.459 11.7248 11.3657 11.6004 11.2725C11.4761 11.2103 11.3518 11.1481 11.1963 11.117C11.0409 11.0859 10.8855 11.0859 10.699 11.0859H8.89612V13.1064H10.8233ZM10.9166 16.7743C11.1031 16.7743 11.2896 16.7432 11.445 16.7122C11.6004 16.6811 11.7559 16.6189 11.8802 16.5257C12.0045 16.4324 12.0978 16.3391 12.191 16.1837C12.2532 16.0283 12.3154 15.8418 12.3154 15.6242C12.3154 15.189 12.191 14.8782 11.9424 14.6606C11.6937 14.4741 11.3518 14.3809 10.9477 14.3809H8.89612V16.7743H10.9166ZM16.9158 16.7432C17.1645 16.9919 17.5375 17.1162 18.0348 17.1162C18.3767 17.1162 18.6876 17.023 18.9363 16.8676C19.1849 16.6811 19.3404 16.4946 19.4025 16.3081H20.9256C20.677 17.0541 20.304 17.5825 19.8066 17.9244C19.3093 18.2353 18.7187 18.4218 18.0037 18.4218C17.5064 18.4218 17.0712 18.3285 16.6671 18.1731C16.263 18.0177 15.9522 17.8001 15.6724 17.4893C15.3927 17.2095 15.1751 16.8676 15.0508 16.4635C14.8953 16.0594 14.8332 15.6242 14.8332 15.1269C14.8332 14.6606 14.8953 14.2254 15.0508 13.8213C15.2062 13.4172 15.4238 13.0753 15.7035 12.7645C15.9833 12.4847 16.3252 12.2361 16.6982 12.0806C17.1023 11.9252 17.5064 11.832 18.0037 11.832C18.5322 11.832 18.9984 11.9252 19.4025 12.1428C19.8066 12.3604 20.1175 12.6091 20.3661 12.9821C20.6148 13.324 20.8013 13.7281 20.9256 14.1633C20.9878 14.5984 21.0189 15.0336 20.9878 15.531H16.4806C16.4806 16.0283 16.6671 16.4946 16.9158 16.7432ZM18.8741 13.4794C18.6565 13.2618 18.3146 13.1375 17.9105 13.1375C17.6307 13.1375 17.4131 13.1997 17.2266 13.2929C17.0401 13.3862 16.9158 13.5105 16.7915 13.6348C16.6671 13.7592 16.605 13.9146 16.5739 14.07C16.5428 14.2254 16.5117 14.3498 16.5117 14.4741H19.3093C19.2471 14.0078 19.0917 13.697 18.8741 13.4794ZM16.1387 10.2156H19.6201V11.0549H16.1387V10.2156Z" fill="white"/>
</svg>
