<svg width="28" height="28" viewBox="0 0 28 28" fill="none" xmlns="http://www.w3.org/2000/svg">
<path d="M0 14C0 21.732 6.26801 28 14 28C21.732 28 28 21.732 28 14C28 6.26801 21.732 0 14 0C6.26801 0 0 6.26801 0 14Z" fill="#8C8C8C"/>
<path fill-rule="evenodd" clip-rule="evenodd" d="M13.9786 7.16797C10.1254 7.16797 7 10.2934 7 14.1466C7 17.2291 9.01223 19.8408 11.7523 20.7826C12.0948 20.8255 12.2232 20.6114 12.2232 20.4401C12.2232 20.2689 12.2232 19.8408 12.2232 19.2414C10.2966 19.6695 9.8685 18.2995 9.8685 18.2995C9.56881 17.486 9.09786 17.2719 9.09786 17.2719C8.45566 16.8438 9.14067 16.8438 9.14067 16.8438C9.82569 16.8866 10.211 17.5716 10.211 17.5716C10.8532 18.642 11.8379 18.3423 12.2232 18.171C12.2661 17.7001 12.4801 17.4004 12.6514 17.2291C11.1101 17.0579 9.48318 16.4585 9.48318 13.7612C9.48318 12.9906 9.74006 12.3912 10.211 11.8774C10.1682 11.749 9.91131 11.0212 10.2966 10.0793C10.2966 10.0793 10.896 9.90803 12.2232 10.8071C12.7798 10.6359 13.3792 10.593 13.9786 10.593C14.578 10.593 15.1774 10.6787 15.7339 10.8071C17.0612 9.90803 17.6606 10.0793 17.6606 10.0793C18.0459 11.0212 17.789 11.749 17.7462 11.9203C18.1743 12.3912 18.474 13.0334 18.474 13.8041C18.474 16.5013 16.8471 17.0579 15.3058 17.2291C15.5627 17.4432 15.7768 17.8713 15.7768 18.5135C15.7768 19.4554 15.7768 20.1833 15.7768 20.4401C15.7768 20.6114 15.9052 20.8255 16.2477 20.7826C19.0306 19.8408 21 17.2291 21 14.1466C20.9572 10.2934 17.8318 7.16797 13.9786 7.16797Z" fill="white"/>
</svg>
