<svg width="28" height="28" viewBox="0 0 28 28" fill="none" xmlns="http://www.w3.org/2000/svg">
<path d="M0 14C0 21.732 6.26801 28 14 28C21.732 28 28 21.732 28 14C28 6.26801 21.732 0 14 0C6.26801 0 0 6.26801 0 14Z" fill="#8C8C8C"/>
<path d="M14 8.05005C15.925 8.05005 16.1875 8.05005 16.975 8.05005C17.675 8.05005 18.025 8.22505 18.2875 8.31255C18.6375 8.48755 18.9 8.57505 19.1625 8.83755C19.425 9.10005 19.6 9.36255 19.6875 9.71255C19.7751 9.97505 19.8625 10.325 19.95 11.025C19.95 11.8125 19.95 11.9875 19.95 14C19.95 16.0125 19.95 16.1875 19.95 16.975C19.95 17.675 19.7751 18.025 19.6875 18.2875C19.5126 18.6375 19.425 18.9 19.1625 19.1625C18.9 19.425 18.6375 19.6 18.2875 19.6875C18.025 19.7751 17.675 19.8625 16.975 19.95C16.1875 19.95 16.0125 19.95 14 19.95C11.9875 19.95 11.8125 19.95 11.025 19.95C10.325 19.95 9.97505 19.7751 9.71255 19.6875C9.36255 19.5126 9.10005 19.425 8.83755 19.1625C8.57505 18.9 8.40005 18.6375 8.31255 18.2875C8.22505 18.025 8.13755 17.675 8.05005 16.975C8.05005 16.1875 8.05005 16.0125 8.05005 14C8.05005 11.9875 8.05005 11.8125 8.05005 11.025C8.05005 10.325 8.22505 9.97505 8.31255 9.71255C8.48755 9.36255 8.57505 9.10005 8.83755 8.83755C9.10005 8.57505 9.36255 8.40005 9.71255 8.31255C9.97505 8.22505 10.325 8.13755 11.025 8.05005C11.8125 8.05005 12.075 8.05005 14 8.05005ZM14 6.73755C11.9875 6.73755 11.8125 6.73755 11.025 6.73755C10.2375 6.73755 9.71255 6.91255 9.27505 7.08755C8.83755 7.26255 8.40005 7.52505 7.96255 7.96255C7.52505 8.40005 7.35005 8.75005 7.08755 9.27505C6.91255 9.71255 6.82505 10.2375 6.73755 11.025C6.73755 11.8125 6.73755 12.075 6.73755 14C6.73755 16.0125 6.73755 16.1875 6.73755 16.975C6.73755 17.7625 6.91255 18.2875 7.08755 18.725C7.26255 19.1625 7.52505 19.6 7.96255 20.0375C8.40005 20.475 8.75005 20.6501 9.27505 20.9126C9.71255 21.0876 10.2375 21.175 11.025 21.2625C11.8125 21.2625 12.075 21.2625 14 21.2625C15.925 21.2625 16.1875 21.2625 16.975 21.2625C17.7625 21.2625 18.2875 21.0876 18.725 20.9126C19.1625 20.7375 19.6 20.475 20.0375 20.0375C20.475 19.6 20.6501 19.25 20.9126 18.725C21.0876 18.2875 21.175 17.7625 21.2625 16.975C21.2625 16.1875 21.2625 15.925 21.2625 14C21.2625 12.075 21.2625 11.8125 21.2625 11.025C21.2625 10.2375 21.0876 9.71255 20.9126 9.27505C20.7375 8.83755 20.475 8.40005 20.0375 7.96255C19.6 7.52505 19.25 7.35005 18.725 7.08755C18.2875 6.91255 17.7625 6.82505 16.975 6.73755C16.1875 6.73755 16.0125 6.73755 14 6.73755Z" fill="white"/>
<path d="M14 10.2375C11.9 10.2375 10.2375 11.9 10.2375 14C10.2375 16.1 11.9 17.7625 14 17.7625C16.1 17.7625 17.7625 16.1 17.7625 14C17.7625 11.9 16.1 10.2375 14 10.2375ZM14 16.45C12.6875 16.45 11.55 15.4 11.55 14C11.55 12.6875 12.6 11.55 14 11.55C15.3125 11.55 16.45 12.6 16.45 14C16.45 15.3125 15.3125 16.45 14 16.45Z" fill="white"/>
<path d="M17.85 11.025C18.3333 11.025 18.725 10.6333 18.725 10.15C18.725 9.6668 18.3333 9.27505 17.85 9.27505C17.3668 9.27505 16.975 9.6668 16.975 10.15C16.975 10.6333 17.3668 11.025 17.85 11.025Z" fill="white"/>
</svg>
